Coordinates
version=1
nRows=30
nColumns=23
inDegrees=yes

Units are S.I. units (second, meters, Newtons, ...)
If the header above contains a line with 'inDegrees', this indicates whether rotational values are in degrees (yes) or radians (no).

endheader
time	pelvis_tilt	pelvis_list	pelvis_rotation	pelvis_tx	pelvis_ty	pelvis_tz	hip_flexion_r	hip_adduction_r	hip_rotation_r	knee_angle_r	knee_angle_r_beta	ankle_angle_r	subtalar_angle_r	mtp_angle_r	hip_flexion_l	hip_adduction_l	hip_rotation_l	knee_angle_l	knee_angle_l_beta	ankle_angle_l	subtalar_angle_l	mtp_angle_l
     22.50000000	    -11.37872389	     -5.41417602	      3.33423142	      2.11151719	      0.88146910	      0.99265161	     53.49047541	      1.03479719	     -7.80976217	     66.19467871	      1.15531509	      4.70843499	     -8.99887364	      0.00000000	    -24.60369340	     -4.85704152	    -14.44356033	     11.49370042	      0.20060292	    -19.61657832	     -1.66770427	      0.00000000
     22.50666667	    -11.85790870	     -5.58619102	      2.98120936	      2.11350071	      0.88336825	      0.99340462	     53.43291873	      1.64057625	     -7.61536011	     60.52201652	      1.05630846	      5.70816305	     -8.74839331	      0.00000000	    -25.25986408	     -5.18896304	    -16.06877782	     12.42781922	      0.21690636	    -20.43933998	     -1.63470673	      0.00000000
     22.51333333	    -12.28302787	     -5.67294676	      2.69939798	      2.11517140	      0.88485281	      0.99429132	     53.16511839	      2.16830419	     -7.34743313	     54.76924645	      0.95590368	      6.68255662	     -8.53261232	      0.00000000	    -25.72649985	     -5.55325478	    -17.31420820	     13.96927546	      0.24380985	    -20.67945785	     -1.63527821	      0.00000000
     22.52000000	    -12.65506849	     -5.64931436	      2.46859699	      2.11649021	      0.88589189	      0.99533410	     52.71880573	      2.58291744	     -7.01657216	     49.01748857	      0.85551657	      7.65629831	     -8.13917101	      0.00000000	    -26.01553269	     -5.89532891	    -18.04108378	     16.05837338	      0.28027149	    -20.60046884	     -1.87556777	      0.00000000
     22.52666667	    -12.75650331	     -5.62564559	      2.29912449	      2.11759457	      0.88683259	      0.99648985	     51.82732959	      3.00023752	     -6.65749769	     43.23359371	      0.75456856	      8.56213614	     -7.64887393	      0.00000000	    -26.39829936	     -6.29987969	    -18.31417679	     18.57888111	      0.32426265	    -20.36177393	     -2.15569884	      0.00000000
     22.53333333	    -13.01924523	     -5.39816930	      2.18763191	      2.11833574	      0.88707601	      0.99772080	     51.06335736	      3.13945575	     -6.28881601	     37.69276910	      0.65786293	      9.50531739	     -6.72838683	      0.00000000	    -26.30754660	     -6.49137622	    -17.66720049	     21.64328519	      0.37774659	    -20.13191700	     -3.06859379	      0.00000000
     22.54000000	    -12.87868945	     -5.29243228	      2.24981051	      2.11900087	      0.88752594	      0.99878510	     49.70599136	      3.29046375	     -6.06272032	     32.19756046	      0.56195344	     10.26922020	     -5.70497777	      0.00000000	    -26.42720239	     -6.76851641	    -16.32905017	     25.02581634	      0.43678289	    -20.07142089	     -4.18612788	      0.00000000
     22.54666667	    -12.74391550	     -5.03888969	      2.36307347	      2.11939501	      0.88751371	      0.99968988	     48.37111999	      3.24102822	     -5.81032707	     27.13549291	      0.47360370	     11.03227137	     -4.31548848	      0.00000000	    -26.24537639	     -6.75725780	    -14.24060124	     28.85616462	      0.50363508	    -20.18610927	     -5.71289686	      0.00000000
     22.55333333	    -12.57332526	     -4.70130852	      2.52627455	      2.11956681	      0.88708021	      1.00037504	     47.06873412	      3.04027639	     -5.60471013	     22.64665659	      0.39525872	     11.70681113	     -2.75303629	      0.00000000	    -25.83941700	     -6.46936871	    -11.61488091	     33.07810571	      0.57732185	    -20.41679246	     -7.34762732	      0.00000000
     22.56000000	    -12.18923601	     -4.38258320	      2.77793750	      2.11965598	      0.88656566	      1.00058934	     45.58618683	      2.76612730	     -5.50421857	     18.73347863	      0.32696088	     12.27434887	     -1.19340696	      0.00000000	    -25.47025715	     -5.94835032	     -8.56377647	     37.54302972	      0.65524948	    -20.89992167	     -9.13661136	      0.00000000
     22.56666667	    -12.03648513	     -3.95647721	      2.97268326	      2.11948179	      0.88522567	      1.00056137	     44.55376898	      2.37406907	     -5.32531237	     15.69794492	      0.27398082	     12.71054174	      0.18660768	      0.00000000	    -24.62002444	     -5.19413034	     -5.76998194	     42.46207289	      0.74110298	    -21.19578782	    -10.07788095	      0.00000000
     22.57333333	    -11.69000772	     -3.68613009	      3.20574849	      2.11932433	      0.88379666	      1.00003427	     43.44183040	      2.05121909	     -5.31087980	     13.43359699	      0.23446050	     12.92055212	      1.07506995	      0.00000000	    -23.88870528	     -4.40887629	     -3.12297890	     47.48193264	      0.82871606	    -21.82448757	    -10.91377503	      0.00000000
     22.58000000	    -11.25062442	     -3.52838750	      3.30476282	      2.11915100	      0.88202425	      0.99932504	     42.40485994	      1.87913333	     -5.36022647	     12.00002203	      0.20943989	     12.96885699	      1.59297447	      0.00000000	    -23.19395583	     -3.70435620	     -1.20665776	     52.60134561	      0.91806667	    -22.42274509	    -11.11477879	      0.00000000
     22.58666667	    -10.74248726	     -3.55950716	      3.28084359	      2.11898887	      0.87990444	      0.99852283	     41.47284066	      1.91748703	     -5.54162034	     11.40273038	      0.19901519	     12.81004804	      1.65171301	      0.00000000	    -22.50986040	     -3.24284406	     -0.03933848	     57.76557195	      1.00819942	    -23.03508059	    -10.78008873	      0.00000000
     22.59333333	    -10.12827209	     -3.80698813	      3.09076779	      2.11889763	      0.87744514	      0.99787394	     40.62360213	      2.21948659	     -5.94997956	     11.64858701	      0.20330620	     12.32187980	      1.28559529	      0.00000000	    -21.90960483	     -3.13818838	      0.33028261	     62.88355360	      1.09752506	    -23.63845957	     -9.98845818	      0.00000000
     22.60000000	     -9.51608920	     -4.19451418	      2.66891760	      2.11875281	      0.87450730	      0.99753285	     39.99329546	      2.73913806	     -6.51901667	     12.73928009	      0.22234238	     11.60072976	      0.67325061	      0.00000000	    -21.28547237	     -3.31752060	     -0.02759051	     67.93147690	      1.18562794	    -24.11203904	     -8.77417771	      0.00000000
     22.60666667	     -8.96716093	     -4.60121857	      2.02372309	      2.11849195	      0.87096087	      0.99749878	     39.74600369	      3.29602699	     -7.34681453	     14.86741497	      0.25948534	     10.67567552	      0.11830874	      0.00000000	    -20.60014390	     -3.59246473	     -0.84588616	     72.85697221	      1.27159405	    -24.57889789	     -7.71232203	      0.00000000
     22.61333333	     -8.40233610	     -5.09432611	      1.23893602	      2.11821707	      0.86698342	      0.99767192	     39.60561938	      3.92954104	     -8.25140645	     17.63826139	      0.30784574	      9.37150958	     -0.67208383	      0.00000000	    -19.95857745	     -4.05079392	     -1.99343404	     77.62358536	      1.35478714	    -24.96171734	     -6.86515305	      0.00000000
     22.62000000	     -7.53219371	     -5.75586970	      0.38917923	      2.11805739	      0.86312084	      0.99787710	     39.09987251	      4.71116278	     -9.12734922	     20.72521304	      0.36172321	      7.69873765	     -1.78771931	      0.00000000	    -19.72862745	     -4.75466861	     -3.38298023	     82.10198632	      1.43294998	    -25.46734557	     -6.76372579	      0.00000000
     22.62666667	     -7.73143134	     -5.73240441	     -0.85047154	      2.11709155	      0.85710163	      0.99872291	     40.22409213	      4.94570544	     -9.35891538	     25.02403189	      0.43675175	      6.40661435	     -2.90179089	      0.00000000	    -18.18889953	     -4.69712258	     -4.79705570	     86.75153957	      1.51410000	    -25.34955724	     -6.35533000	      0.00000000
     22.63333333	     -7.61343941	     -5.81507846	     -2.14667852	      2.11614564	      0.85138248	      0.99964748	     40.82477197	      5.43274858	     -9.08742501	     29.22745950	      0.51011540	      5.10662075	     -4.53034472	      0.00000000	    -17.03664088	     -4.81299144	     -6.35580282	     91.09840617	      1.58996713	    -25.38770304	     -6.81892573	      0.00000000
     22.64000000	     -7.57296649	     -5.83053778	     -3.50281859	      2.11497368	      0.84549242	      1.00079025	     41.42459927	      6.03643083	     -8.25842228	     33.47474680	      0.58424455	      4.21979174	     -6.45555609	      0.00000000	    -15.72632125	     -4.94024805	     -7.91050633	     95.31318030	      1.66352882	    -25.19232639	     -7.43773405	      0.00000000
     22.64666667	     -7.55741144	     -5.76284851	     -4.89908587	      2.11352566	      0.83967426	      1.00221078	     41.95428168	      6.73843507	     -7.03994647	     37.71891973	      0.65831934	      4.02975864	     -8.30997461	      0.00000000	    -14.27080891	     -5.07372017	     -9.42634178	     99.38384543	      1.73457533	    -24.79283985	     -8.09009465	      0.00000000
     22.65333333	     -7.53684202	     -5.65772836	     -6.22665555	      2.11182647	      0.83416026	      1.00372562	     42.30554809	      7.49578492	     -5.62256064	     41.82355177	      0.72995868	      4.62342434	     -9.92906729	      0.00000000	    -12.65063539	     -5.28262371	    -10.77283864	    103.31726566	      1.80322646	    -24.29015312	     -8.82426654	      0.00000000
     22.66000000	     -7.49118478	     -5.55827588	     -7.39100070	      2.10999211	      0.82920403	      1.00523226	     42.37633124	      8.24864851	     -4.19005153	     45.64775501	      0.79670362	      5.96891060	    -11.17467452	      0.00000000	    -10.84610367	     -5.61286688	    -11.83041312	    107.08743723	      1.86902837	    -23.69892961	     -9.45366157	      0.00000000
     22.66666667	     -6.75006349	     -6.11659942	     -8.03317954	      2.10860393	      0.82617367	      1.00618493	     41.09455374	      9.15483516	     -3.51546570	     48.69806053	      0.84994150	      7.86647385	    -11.97569480	      0.00000000	     -9.70432663	     -6.73987983	    -12.37700931	    110.55771585	      1.92959616	    -23.10341053	     -9.99234162	      0.00000000
     22.67333333	     -7.21489588	     -5.44994115	     -9.07753624	      2.10595203	      0.82166098	      1.00786974	     41.32617969	      9.51036127	     -1.64484812	     51.98622563	      0.90733080	     10.28697603	    -12.47432892	      0.00000000	     -6.65438948	     -6.63576995	    -12.83583518	    114.02940461	      1.99018855	    -22.35150689	    -10.09537926	      0.00000000
     22.68000000	     -6.58877590	     -5.83003679	     -9.36229789	      2.10417576	      0.82002383	      1.00855958	     39.51707257	     10.12128496	     -0.84947586	     54.06817730	      0.94366771	     12.75005845	    -13.00259004	      0.00000000	     -4.75878553	     -7.64797515	    -12.57707408	    117.03312896	      2.04261343	    -21.79654792	    -10.33049133	      0.00000000
     22.68666667	     -6.88772350	     -5.37809066	     -9.73176448	      2.10157000	      0.81739415	      1.00938613	     38.77736402	     10.05272651	      0.23411480	     56.16625660	      0.98028611	     15.58944642	    -12.54516131	      0.00000000	     -1.29279227	     -7.78729031	    -12.04554645	    119.93347981	      2.09323411	    -20.97789996	     -9.83800608	      0.00000000
     22.69333333	     -6.37668464	     -5.55338286	     -9.67177972	      2.09956656	      0.81711725	      1.00963755	     36.43890352	     10.29439190	      1.07944451	     57.15629430	      0.99756552	     18.02190202	    -12.89383864	      0.00000000	      1.35091415	     -8.46262771	    -11.05342241	    122.24406799	      2.13356148	    -20.51057321	     -9.80571953	      0.00000000
